<svg xmlns="http://www.w3.org/2000/svg" viewBox="0 0 512 512" role="img" aria-label="StrainVerse">
  <rect width="512" height="512" rx="96" fill="#0a0a0a"/>
  <rect x="128" y="128" width="256" height="256" rx="48" fill="rgba(34, 95, 65, 0.2)" stroke="#404040" stroke-width="8"/>
  <g transform="translate(256 256) scale(5.5) translate(-12 -12)" fill="none" stroke="#225F41" stroke-width="2" stroke-linecap="round" stroke-linejoin="round">
    <path d="M14 9.536V7a4 4 0 0 1 4-4h1.5a.5.5 0 0 1 .5.5V5a4 4 0 0 1-4 4 4 4 0 0 0-4 4c0 2 1 3 1 5a5 5 0 0 1-1 3"/>
    <path d="M4 9a5 5 0 0 1 8 4 5 5 0 0 1-8-4"/>
    <path d="M5 21h14"/>
  </g>
</svg>
